<?xml version="1.0" encoding="UTF-8" standalone="no"?>
<!DOCTYPE svg PUBLIC "-//W3C//DTD SVG 1.1//EN"
 "http://www.w3.org/Graphics/SVG/1.1/DTD/svg11.dtd">
<!-- Generated by graphviz version 2.44.1 (20200629.0800)
 -->
<!-- Pages: 1 -->
<svg width="3086pt" height="1021pt"
 viewBox="0.00 0.00 3086.00 1021.00" xmlns="http://www.w3.org/2000/svg" xmlns:xlink="http://www.w3.org/1999/xlink">
<g id="graph0" class="graph" transform="scale(1 1) rotate(0) translate(4 1017)">
<polygon fill="white" stroke="transparent" points="-4,4 -4,-1017 3082,-1017 3082,4 -4,4"/>
<g id="clust1" class="cluster">
<title>cluster_#18</title>
</g>
<g id="clust3" class="cluster">
<title>cluster_#150</title>
</g>
<g id="clust4" class="cluster">
<title>cluster_#149</title>
</g>
<g id="clust2" class="cluster">
<title>cluster_#16</title>
</g>
<!-- #11 -->
<g id="node1" class="node">
<title>#11</title>
<polygon fill="none" stroke="black" points="1412.5,-1013 1099.5,-1013 1099.5,-977 1412.5,-977 1412.5,-1013"/>
<text text-anchor="middle" x="1256" y="-991.3" font-family="Times New Roman,serif" font-size="14.00">PRODUCT_RELATED_PRODUCT_CATEGORY</text>
</g>
<!-- #98 -->
<g id="node2" class="node">
<title>#98</title>
<polygon fill="none" stroke="black" points="1625,-959 1542,-959 1542,-923 1625,-923 1625,-959"/>
<text text-anchor="middle" x="1583.5" y="-937.3" font-family="Times New Roman,serif" font-size="14.00">PRODUCT</text>
</g>
<!-- #11&#45;&gt;#98 -->
<g id="edge1" class="edge">
<title>#11&#45;&gt;#98</title>
<path fill="none" stroke="black" d="M1412.8,-995C1497.12,-995 1584,-995 1584,-995 1584,-995 1584,-969.28 1584,-969.28"/>
<polygon fill="black" stroke="black" points="1587.5,-969.28 1584,-959.28 1580.5,-969.28 1587.5,-969.28"/>
</g>
<!-- #10 -->
<g id="node3" class="node">
<title>#10</title>
<polygon fill="none" stroke="black" points="1918.5,-959 1736.5,-959 1736.5,-923 1918.5,-923 1918.5,-959"/>
<text text-anchor="middle" x="1827.5" y="-937.3" font-family="Times New Roman,serif" font-size="14.00">MECHANICAL_CONTEXT</text>
</g>
<!-- #98&#45;&gt;#10 -->
<g id="edge2" class="edge">
<title>#98&#45;&gt;#10</title>
<path fill="none" stroke="black" d="M1625.17,-941C1625.17,-941 1726.4,-941 1726.4,-941"/>
<polygon fill="black" stroke="black" points="1726.4,-944.5 1736.4,-941 1726.4,-937.5 1726.4,-944.5"/>
</g>
<!-- #18 -->
<g id="node4" class="node">
<title>#18</title>
<polygon fill="none" stroke="black" points="2185,-913 2003,-913 2003,-877 2185,-877 2185,-913"/>
<text text-anchor="middle" x="2094" y="-891.3" font-family="Times New Roman,serif" font-size="14.00">APPLICATION_CONTEXT</text>
</g>
<!-- #10&#45;&gt;#18 -->
<g id="edge3" class="edge">
<title>#10&#45;&gt;#18</title>
<path fill="none" stroke="black" d="M1828,-922.76C1828,-915.57 1828,-909 1828,-909 1828,-909 1992.83,-909 1992.83,-909"/>
<polygon fill="black" stroke="black" points="1992.83,-912.5 2002.83,-909 1992.83,-905.5 1992.83,-912.5"/>
</g>
<!-- #15 -->
<g id="node5" class="node">
<title>#15</title>
<polygon fill="none" stroke="black" points="278,-820 0,-820 0,-784 278,-784 278,-820"/>
<text text-anchor="middle" x="139" y="-798.3" font-family="Times New Roman,serif" font-size="14.00">SHAPE_DEFINITION_REPRESENTATION</text>
</g>
<!-- #16 -->
<g id="node6" class="node">
<title>#16</title>
<polygon fill="none" stroke="black" points="583.5,-905 362.5,-905 362.5,-869 583.5,-869 583.5,-905"/>
<text text-anchor="middle" x="473" y="-883.3" font-family="Times New Roman,serif" font-size="14.00">PRODUCT_DEFINITION_SHAPE</text>
</g>
<!-- #15&#45;&gt;#16 -->
<g id="edge4" class="edge">
<title>#15&#45;&gt;#16</title>
<path fill="none" stroke="black" d="M278.23,-804.33C369.87,-804.33 473,-804.33 473,-804.33 473,-804.33 473,-858.65 473,-858.65"/>
<polygon fill="black" stroke="black" points="469.5,-858.65 473,-868.65 476.5,-858.65 469.5,-858.65"/>
</g>
<!-- #150 -->
<g id="node10" class="node">
<title>#150</title>
<polygon fill="none" stroke="black" points="632,-712 314,-712 314,-676 632,-676 632,-712"/>
<text text-anchor="middle" x="473" y="-690.3" font-family="Times New Roman,serif" font-size="14.00">ADVANCED_BREP_SHAPE_REPRESENTATION</text>
</g>
<!-- #15&#45;&gt;#150 -->
<g id="edge10" class="edge">
<title>#15&#45;&gt;#150</title>
<path fill="none" stroke="black" d="M278.18,-794.17C312.18,-794.17 339,-794.17 339,-794.17 339,-794.17 339,-722.37 339,-722.37"/>
<polygon fill="black" stroke="black" points="342.5,-722.37 339,-712.37 335.5,-722.37 342.5,-722.37"/>
</g>
<!-- #96 -->
<g id="node7" class="node">
<title>#96</title>
<polygon fill="none" stroke="black" points="917.5,-905 747.5,-905 747.5,-869 917.5,-869 917.5,-905"/>
<text text-anchor="middle" x="832.5" y="-883.3" font-family="Times New Roman,serif" font-size="14.00">PRODUCT_DEFINITION</text>
</g>
<!-- #16&#45;&gt;#96 -->
<g id="edge5" class="edge">
<title>#16&#45;&gt;#96</title>
<path fill="none" stroke="black" d="M583.8,-887C583.8,-887 737.47,-887 737.47,-887"/>
<polygon fill="black" stroke="black" points="737.47,-890.5 747.47,-887 737.47,-883.5 737.47,-890.5"/>
</g>
<!-- #97 -->
<g id="node8" class="node">
<title>#97</title>
<polygon fill="none" stroke="black" points="1479,-959 1033,-959 1033,-923 1479,-923 1479,-959"/>
<text text-anchor="middle" x="1256" y="-937.3" font-family="Times New Roman,serif" font-size="14.00">PRODUCT_DEFINITION_FORMATION_WITH_SPECIFIED_SOURCE</text>
</g>
<!-- #96&#45;&gt;#97 -->
<g id="edge6" class="edge">
<title>#96&#45;&gt;#97</title>
<path fill="none" stroke="black" d="M917.66,-893C987.88,-893 1076,-893 1076,-893 1076,-893 1076,-912.85 1076,-912.85"/>
<polygon fill="black" stroke="black" points="1072.5,-912.85 1076,-922.85 1079.5,-912.85 1072.5,-912.85"/>
</g>
<!-- #19 -->
<g id="node9" class="node">
<title>#19</title>
<polygon fill="none" stroke="black" points="1326.5,-905 1185.5,-905 1185.5,-869 1326.5,-869 1326.5,-905"/>
<text text-anchor="middle" x="1256" y="-883.3" font-family="Times New Roman,serif" font-size="14.00">DESIGN_CONTEXT</text>
</g>
<!-- #96&#45;&gt;#19 -->
<g id="edge8" class="edge">
<title>#96&#45;&gt;#19</title>
<path fill="none" stroke="black" d="M917.69,-881C917.69,-881 1175.33,-881 1175.33,-881"/>
<polygon fill="black" stroke="black" points="1175.33,-884.5 1185.33,-881 1175.33,-877.5 1175.33,-884.5"/>
</g>
<!-- #97&#45;&gt;#98 -->
<g id="edge7" class="edge">
<title>#97&#45;&gt;#98</title>
<path fill="none" stroke="black" d="M1479.43,-941C1479.43,-941 1531.82,-941 1531.82,-941"/>
<polygon fill="black" stroke="black" points="1531.82,-944.5 1541.82,-941 1531.82,-937.5 1531.82,-944.5"/>
</g>
<!-- #19&#45;&gt;#18 -->
<g id="edge9" class="edge">
<title>#19&#45;&gt;#18</title>
<path fill="none" stroke="black" d="M1326.73,-895.67C1326.73,-895.67 1992.85,-895.67 1992.85,-895.67"/>
<polygon fill="black" stroke="black" points="1992.85,-899.17 2002.85,-895.67 1992.85,-892.17 1992.85,-899.17"/>
</g>
<!-- #149 -->
<g id="node11" class="node">
<title>#149</title>
<polygon fill="none" stroke="black" points="923,-529 742,-529 742,-493 923,-493 923,-529"/>
<text text-anchor="middle" x="832.5" y="-507.3" font-family="Times New Roman,serif" font-size="14.00">MANIFOLD_SOLID_BREP</text>
</g>
<!-- #150&#45;&gt;#149 -->
<g id="edge11" class="edge">
<title>#150&#45;&gt;#149</title>
<path fill="none" stroke="black" d="M473,-675.78C473,-629.5 473,-511 473,-511 473,-511 731.78,-511 731.78,-511"/>
<polygon fill="black" stroke="black" points="731.78,-514.5 741.78,-511 731.78,-507.5 731.78,-514.5"/>
</g>
<!-- #103 -->
<g id="node57" class="node">
<title>#103</title>
<polygon fill="none" stroke="black" points="997,-728 668,-728 668,-660 997,-660 997,-728"/>
<text text-anchor="middle" x="832.5" y="-712.8" font-family="Times New Roman,serif" font-size="14.00">GEOMETRIC_REPRESENTATION_CONTEXT</text>
<text text-anchor="middle" x="832.5" y="-697.8" font-family="Times New Roman,serif" font-size="14.00">GLOBAL_UNCERTAINTY_ASSIGNED_CONTEXT</text>
<text text-anchor="middle" x="832.5" y="-682.8" font-family="Times New Roman,serif" font-size="14.00">GLOBAL_UNIT_ASSIGNED_CONTEXT</text>
<text text-anchor="middle" x="832.5" y="-667.8" font-family="Times New Roman,serif" font-size="14.00">REPRESENTATION_CONTEXT</text>
</g>
<!-- #150&#45;&gt;#103 -->
<g id="edge61" class="edge">
<title>#150&#45;&gt;#103</title>
<path fill="none" stroke="black" d="M632.25,-694C632.25,-694 657.9,-694 657.9,-694"/>
<polygon fill="black" stroke="black" points="657.9,-697.5 667.9,-694 657.9,-690.5 657.9,-697.5"/>
</g>
<!-- #148 -->
<g id="node12" class="node">
<title>#148</title>
<polygon fill="none" stroke="black" points="1317,-458 1195,-458 1195,-422 1317,-422 1317,-458"/>
<text text-anchor="middle" x="1256" y="-436.3" font-family="Times New Roman,serif" font-size="14.00">CLOSED_SHELL</text>
</g>
<!-- #149&#45;&gt;#148 -->
<g id="edge12" class="edge">
<title>#149&#45;&gt;#148</title>
<path fill="none" stroke="black" d="M923.05,-504.5C1042.02,-504.5 1236,-504.5 1236,-504.5 1236,-504.5 1236,-468.31 1236,-468.31"/>
<polygon fill="black" stroke="black" points="1239.5,-468.31 1236,-458.31 1232.5,-468.31 1239.5,-468.31"/>
</g>
<!-- #124 -->
<g id="node13" class="node">
<title>#124</title>
<polygon fill="none" stroke="black" points="1652,-418 1515,-418 1515,-382 1652,-382 1652,-418"/>
<text text-anchor="middle" x="1583.5" y="-396.3" font-family="Times New Roman,serif" font-size="14.00">ADVANCED_FACE</text>
</g>
<!-- #148&#45;&gt;#124 -->
<g id="edge13" class="edge">
<title>#148&#45;&gt;#124</title>
<path fill="none" stroke="black" d="M1317.31,-430C1412.24,-430 1584,-430 1584,-430 1584,-430 1584,-428.14 1584,-428.14"/>
<polygon fill="black" stroke="black" points="1587.5,-428.14 1584,-418.14 1580.5,-428.14 1587.5,-428.14"/>
</g>
<!-- #125 -->
<g id="node41" class="node">
<title>#125</title>
<polygon fill="none" stroke="black" points="1652,-499 1515,-499 1515,-463 1652,-463 1652,-499"/>
<text text-anchor="middle" x="1583.5" y="-477.3" font-family="Times New Roman,serif" font-size="14.00">ADVANCED_FACE</text>
</g>
<!-- #148&#45;&gt;#125 -->
<g id="edge43" class="edge">
<title>#148&#45;&gt;#125</title>
<path fill="none" stroke="black" d="M1277,-458.11C1277,-467.9 1277,-478 1277,-478 1277,-478 1504.72,-478 1504.72,-478"/>
<polygon fill="black" stroke="black" points="1504.72,-481.5 1514.72,-478 1504.72,-474.5 1504.72,-481.5"/>
</g>
<!-- #126 -->
<g id="node49" class="node">
<title>#126</title>
<polygon fill="none" stroke="black" points="1652,-155 1515,-155 1515,-119 1652,-119 1652,-155"/>
<text text-anchor="middle" x="1583.5" y="-133.3" font-family="Times New Roman,serif" font-size="14.00">ADVANCED_FACE</text>
</g>
<!-- #148&#45;&gt;#126 -->
<g id="edge52" class="edge">
<title>#148&#45;&gt;#126</title>
<path fill="none" stroke="black" d="M1256,-421.95C1256,-356.72 1256,-137 1256,-137 1256,-137 1504.85,-137 1504.85,-137"/>
<polygon fill="black" stroke="black" points="1504.85,-140.5 1514.85,-137 1504.85,-133.5 1504.85,-140.5"/>
</g>
<!-- #120 -->
<g id="node14" class="node">
<title>#120</title>
<polygon fill="none" stroke="black" points="1882,-438 1773,-438 1773,-402 1882,-402 1882,-438"/>
<text text-anchor="middle" x="1827.5" y="-416.3" font-family="Times New Roman,serif" font-size="14.00">FACE_BOUND</text>
</g>
<!-- #124&#45;&gt;#120 -->
<g id="edge14" class="edge">
<title>#124&#45;&gt;#120</title>
<path fill="none" stroke="black" d="M1652.12,-410C1652.12,-410 1762.9,-410 1762.9,-410"/>
<polygon fill="black" stroke="black" points="1762.9,-413.5 1772.9,-410 1762.9,-406.5 1762.9,-413.5"/>
</g>
<!-- #121 -->
<g id="node25" class="node">
<title>#121</title>
<polygon fill="none" stroke="black" points="1882,-384 1773,-384 1773,-348 1882,-348 1882,-384"/>
<text text-anchor="middle" x="1827.5" y="-362.3" font-family="Times New Roman,serif" font-size="14.00">FACE_BOUND</text>
</g>
<!-- #124&#45;&gt;#121 -->
<g id="edge26" class="edge">
<title>#124&#45;&gt;#121</title>
<path fill="none" stroke="black" d="M1652.26,-396C1724.57,-396 1828,-396 1828,-396 1828,-396 1828,-394.14 1828,-394.14"/>
<polygon fill="black" stroke="black" points="1831.5,-394.14 1828,-384.14 1824.5,-394.14 1831.5,-394.14"/>
</g>
<!-- #147 -->
<g id="node36" class="node">
<title>#147</title>
<polygon fill="none" stroke="black" points="1918.5,-330 1736.5,-330 1736.5,-294 1918.5,-294 1918.5,-330"/>
<text text-anchor="middle" x="1827.5" y="-308.3" font-family="Times New Roman,serif" font-size="14.00">CYLINDRICAL_SURFACE</text>
</g>
<!-- #124&#45;&gt;#147 -->
<g id="edge38" class="edge">
<title>#124&#45;&gt;#147</title>
<path fill="none" stroke="black" d="M1652.27,-390C1699.98,-390 1755,-390 1755,-390 1755,-390 1755,-340.09 1755,-340.09"/>
<polygon fill="black" stroke="black" points="1758.5,-340.09 1755,-330.09 1751.5,-340.09 1758.5,-340.09"/>
</g>
<!-- #116 -->
<g id="node15" class="node">
<title>#116</title>
<polygon fill="none" stroke="black" points="2143,-438 2045,-438 2045,-402 2143,-402 2143,-438"/>
<text text-anchor="middle" x="2094" y="-416.3" font-family="Times New Roman,serif" font-size="14.00">EDGE_LOOP</text>
</g>
<!-- #120&#45;&gt;#116 -->
<g id="edge15" class="edge">
<title>#120&#45;&gt;#116</title>
<path fill="none" stroke="black" d="M1882.07,-420C1882.07,-420 2034.88,-420 2034.88,-420"/>
<polygon fill="black" stroke="black" points="2034.88,-423.5 2044.88,-420 2034.88,-416.5 2034.88,-423.5"/>
</g>
<!-- #112 -->
<g id="node16" class="node">
<title>#112</title>
<polygon fill="none" stroke="black" points="2359,-438 2228,-438 2228,-402 2359,-402 2359,-438"/>
<text text-anchor="middle" x="2293.5" y="-416.3" font-family="Times New Roman,serif" font-size="14.00">ORIENTED_EDGE</text>
</g>
<!-- #116&#45;&gt;#112 -->
<g id="edge16" class="edge">
<title>#116&#45;&gt;#112</title>
<path fill="none" stroke="black" d="M2143.06,-420C2143.06,-420 2217.66,-420 2217.66,-420"/>
<polygon fill="black" stroke="black" points="2217.66,-423.5 2227.66,-420 2217.66,-416.5 2217.66,-423.5"/>
</g>
<!-- #110 -->
<g id="node17" class="node">
<title>#110</title>
<polygon fill="none" stroke="black" points="2510,-465 2402,-465 2402,-429 2510,-429 2510,-465"/>
<text text-anchor="middle" x="2456" y="-443.3" font-family="Times New Roman,serif" font-size="14.00">EDGE_CURVE</text>
</g>
<!-- #112&#45;&gt;#110 -->
<g id="edge17" class="edge">
<title>#112&#45;&gt;#110</title>
<path fill="none" stroke="black" d="M2359.13,-433.5C2359.13,-433.5 2391.83,-433.5 2391.83,-433.5"/>
<polygon fill="black" stroke="black" points="2391.83,-437 2401.83,-433.5 2391.83,-430 2391.83,-437"/>
</g>
<!-- #106 -->
<g id="node18" class="node">
<title>#106</title>
<polygon fill="none" stroke="black" points="2667,-465 2546,-465 2546,-429 2667,-429 2667,-465"/>
<text text-anchor="middle" x="2606.5" y="-443.3" font-family="Times New Roman,serif" font-size="14.00">VERTEX_POINT</text>
</g>
<!-- #110&#45;&gt;#106 -->
<g id="edge18" class="edge">
<title>#110&#45;&gt;#106</title>
<path fill="none" stroke="black" d="M2510.33,-441C2510.33,-441 2535.87,-441 2535.87,-441"/>
<polygon fill="black" stroke="black" points="2535.87,-444.5 2545.87,-441 2535.87,-437.5 2535.87,-444.5"/>
</g>
<!-- #110&#45;&gt;#106 -->
<g id="edge20" class="edge">
<title>#110&#45;&gt;#106</title>
<path fill="none" stroke="black" d="M2510.33,-453C2510.33,-453 2535.87,-453 2535.87,-453"/>
<polygon fill="black" stroke="black" points="2535.87,-456.5 2545.87,-453 2535.87,-449.5 2535.87,-456.5"/>
</g>
<!-- #108 -->
<g id="node20" class="node">
<title>#108</title>
<polygon fill="none" stroke="black" points="2640,-519 2573,-519 2573,-483 2640,-483 2640,-519"/>
<text text-anchor="middle" x="2606.5" y="-497.3" font-family="Times New Roman,serif" font-size="14.00">CIRCLE</text>
</g>
<!-- #110&#45;&gt;#108 -->
<g id="edge21" class="edge">
<title>#110&#45;&gt;#108</title>
<path fill="none" stroke="black" d="M2474,-465.35C2474,-476.07 2474,-487.5 2474,-487.5 2474,-487.5 2562.72,-487.5 2562.72,-487.5"/>
<polygon fill="black" stroke="black" points="2562.72,-491 2572.72,-487.5 2562.72,-484 2562.72,-491"/>
</g>
<!-- #142 -->
<g id="node19" class="node">
<title>#142</title>
<polygon fill="none" stroke="black" points="2860.5,-465 2715.5,-465 2715.5,-429 2860.5,-429 2860.5,-465"/>
<text text-anchor="middle" x="2788" y="-443.3" font-family="Times New Roman,serif" font-size="14.00">CARTESIAN_POINT</text>
</g>
<!-- #106&#45;&gt;#142 -->
<g id="edge19" class="edge">
<title>#106&#45;&gt;#142</title>
<path fill="none" stroke="black" d="M2667.19,-447C2667.19,-447 2705.4,-447 2705.4,-447"/>
<polygon fill="black" stroke="black" points="2705.4,-450.5 2715.4,-447 2705.4,-443.5 2705.4,-450.5"/>
</g>
<!-- #128 -->
<g id="node21" class="node">
<title>#128</title>
<polygon fill="none" stroke="black" points="2873,-519 2703,-519 2703,-483 2873,-483 2873,-519"/>
<text text-anchor="middle" x="2788" y="-497.3" font-family="Times New Roman,serif" font-size="14.00">AXIS2_PLACEMENT_3D</text>
</g>
<!-- #108&#45;&gt;#128 -->
<g id="edge22" class="edge">
<title>#108&#45;&gt;#128</title>
<path fill="none" stroke="black" d="M2640.21,-501C2640.21,-501 2692.75,-501 2692.75,-501"/>
<polygon fill="black" stroke="black" points="2692.75,-504.5 2702.75,-501 2692.75,-497.5 2692.75,-504.5"/>
</g>
<!-- #141 -->
<g id="node22" class="node">
<title>#141</title>
<polygon fill="none" stroke="black" points="3054,-465 2909,-465 2909,-429 3054,-429 3054,-465"/>
<text text-anchor="middle" x="2981.5" y="-443.3" font-family="Times New Roman,serif" font-size="14.00">CARTESIAN_POINT</text>
</g>
<!-- #128&#45;&gt;#141 -->
<g id="edge23" class="edge">
<title>#128&#45;&gt;#141</title>
<path fill="none" stroke="black" d="M2865,-482.72C2865,-467.05 2865,-447 2865,-447 2865,-447 2898.71,-447 2898.71,-447"/>
<polygon fill="black" stroke="black" points="2898.71,-450.5 2908.71,-447 2898.71,-443.5 2898.71,-450.5"/>
</g>
<!-- #134 -->
<g id="node23" class="node">
<title>#134</title>
<polygon fill="none" stroke="black" points="3027.5,-519 2935.5,-519 2935.5,-483 3027.5,-483 3027.5,-519"/>
<text text-anchor="middle" x="2981.5" y="-497.3" font-family="Times New Roman,serif" font-size="14.00">DIRECTION</text>
</g>
<!-- #128&#45;&gt;#134 -->
<g id="edge24" class="edge">
<title>#128&#45;&gt;#134</title>
<path fill="none" stroke="black" d="M2873.15,-501C2873.15,-501 2925.37,-501 2925.37,-501"/>
<polygon fill="black" stroke="black" points="2925.37,-504.5 2935.37,-501 2925.37,-497.5 2925.37,-504.5"/>
</g>
<!-- #135 -->
<g id="node24" class="node">
<title>#135</title>
<polygon fill="none" stroke="black" points="3027.5,-573 2935.5,-573 2935.5,-537 3027.5,-537 3027.5,-573"/>
<text text-anchor="middle" x="2981.5" y="-551.3" font-family="Times New Roman,serif" font-size="14.00">DIRECTION</text>
</g>
<!-- #128&#45;&gt;#135 -->
<g id="edge25" class="edge">
<title>#128&#45;&gt;#135</title>
<path fill="none" stroke="black" d="M2788,-519.35C2788,-530.07 2788,-541.5 2788,-541.5 2788,-541.5 2925.15,-541.5 2925.15,-541.5"/>
<polygon fill="black" stroke="black" points="2925.15,-545 2935.15,-541.5 2925.15,-538 2925.15,-545"/>
</g>
<!-- #117 -->
<g id="node26" class="node">
<title>#117</title>
<polygon fill="none" stroke="black" points="2143,-384 2045,-384 2045,-348 2143,-348 2143,-384"/>
<text text-anchor="middle" x="2094" y="-362.3" font-family="Times New Roman,serif" font-size="14.00">EDGE_LOOP</text>
</g>
<!-- #121&#45;&gt;#117 -->
<g id="edge27" class="edge">
<title>#121&#45;&gt;#117</title>
<path fill="none" stroke="black" d="M1882.07,-366C1882.07,-366 2034.88,-366 2034.88,-366"/>
<polygon fill="black" stroke="black" points="2034.88,-369.5 2044.88,-366 2034.88,-362.5 2034.88,-369.5"/>
</g>
<!-- #113 -->
<g id="node27" class="node">
<title>#113</title>
<polygon fill="none" stroke="black" points="2359,-384 2228,-384 2228,-348 2359,-348 2359,-384"/>
<text text-anchor="middle" x="2293.5" y="-362.3" font-family="Times New Roman,serif" font-size="14.00">ORIENTED_EDGE</text>
</g>
<!-- #117&#45;&gt;#113 -->
<g id="edge28" class="edge">
<title>#117&#45;&gt;#113</title>
<path fill="none" stroke="black" d="M2143.06,-366C2143.06,-366 2217.66,-366 2217.66,-366"/>
<polygon fill="black" stroke="black" points="2217.66,-369.5 2227.66,-366 2217.66,-362.5 2217.66,-369.5"/>
</g>
<!-- #111 -->
<g id="node28" class="node">
<title>#111</title>
<polygon fill="none" stroke="black" points="2510,-195 2402,-195 2402,-159 2510,-159 2510,-195"/>
<text text-anchor="middle" x="2456" y="-173.3" font-family="Times New Roman,serif" font-size="14.00">EDGE_CURVE</text>
</g>
<!-- #113&#45;&gt;#111 -->
<g id="edge29" class="edge">
<title>#113&#45;&gt;#111</title>
<path fill="none" stroke="black" d="M2359.41,-366C2397.52,-366 2438,-366 2438,-366 2438,-366 2438,-205.12 2438,-205.12"/>
<polygon fill="black" stroke="black" points="2441.5,-205.12 2438,-195.12 2434.5,-205.12 2441.5,-205.12"/>
</g>
<!-- #107 -->
<g id="node29" class="node">
<title>#107</title>
<polygon fill="none" stroke="black" points="2667,-195 2546,-195 2546,-159 2667,-159 2667,-195"/>
<text text-anchor="middle" x="2606.5" y="-173.3" font-family="Times New Roman,serif" font-size="14.00">VERTEX_POINT</text>
</g>
<!-- #111&#45;&gt;#107 -->
<g id="edge30" class="edge">
<title>#111&#45;&gt;#107</title>
<path fill="none" stroke="black" d="M2510.33,-183C2510.33,-183 2535.87,-183 2535.87,-183"/>
<polygon fill="black" stroke="black" points="2535.87,-186.5 2545.87,-183 2535.87,-179.5 2535.87,-186.5"/>
</g>
<!-- #111&#45;&gt;#107 -->
<g id="edge32" class="edge">
<title>#111&#45;&gt;#107</title>
<path fill="none" stroke="black" d="M2510.33,-171C2510.33,-171 2535.87,-171 2535.87,-171"/>
<polygon fill="black" stroke="black" points="2535.87,-174.5 2545.87,-171 2535.87,-167.5 2535.87,-174.5"/>
</g>
<!-- #109 -->
<g id="node31" class="node">
<title>#109</title>
<polygon fill="none" stroke="black" points="2640,-249 2573,-249 2573,-213 2640,-213 2640,-249"/>
<text text-anchor="middle" x="2606.5" y="-227.3" font-family="Times New Roman,serif" font-size="14.00">CIRCLE</text>
</g>
<!-- #111&#45;&gt;#109 -->
<g id="edge33" class="edge">
<title>#111&#45;&gt;#109</title>
<path fill="none" stroke="black" d="M2474,-195.35C2474,-206.07 2474,-217.5 2474,-217.5 2474,-217.5 2562.72,-217.5 2562.72,-217.5"/>
<polygon fill="black" stroke="black" points="2562.72,-221 2572.72,-217.5 2562.72,-214 2562.72,-221"/>
</g>
<!-- #144 -->
<g id="node30" class="node">
<title>#144</title>
<polygon fill="none" stroke="black" points="2860.5,-195 2715.5,-195 2715.5,-159 2860.5,-159 2860.5,-195"/>
<text text-anchor="middle" x="2788" y="-173.3" font-family="Times New Roman,serif" font-size="14.00">CARTESIAN_POINT</text>
</g>
<!-- #107&#45;&gt;#144 -->
<g id="edge31" class="edge">
<title>#107&#45;&gt;#144</title>
<path fill="none" stroke="black" d="M2667.19,-177C2667.19,-177 2705.4,-177 2705.4,-177"/>
<polygon fill="black" stroke="black" points="2705.4,-180.5 2715.4,-177 2705.4,-173.5 2705.4,-180.5"/>
</g>
<!-- #129 -->
<g id="node32" class="node">
<title>#129</title>
<polygon fill="none" stroke="black" points="2873,-249 2703,-249 2703,-213 2873,-213 2873,-249"/>
<text text-anchor="middle" x="2788" y="-227.3" font-family="Times New Roman,serif" font-size="14.00">AXIS2_PLACEMENT_3D</text>
</g>
<!-- #109&#45;&gt;#129 -->
<g id="edge34" class="edge">
<title>#109&#45;&gt;#129</title>
<path fill="none" stroke="black" d="M2640.21,-231C2640.21,-231 2692.75,-231 2692.75,-231"/>
<polygon fill="black" stroke="black" points="2692.75,-234.5 2702.75,-231 2692.75,-227.5 2692.75,-234.5"/>
</g>
<!-- #143 -->
<g id="node33" class="node">
<title>#143</title>
<polygon fill="none" stroke="black" points="3054,-195 2909,-195 2909,-159 3054,-159 3054,-195"/>
<text text-anchor="middle" x="2981.5" y="-173.3" font-family="Times New Roman,serif" font-size="14.00">CARTESIAN_POINT</text>
</g>
<!-- #129&#45;&gt;#143 -->
<g id="edge35" class="edge">
<title>#129&#45;&gt;#143</title>
<path fill="none" stroke="black" d="M2867,-212.72C2867,-197.05 2867,-177 2867,-177 2867,-177 2898.99,-177 2898.99,-177"/>
<polygon fill="black" stroke="black" points="2898.99,-180.5 2908.99,-177 2898.99,-173.5 2898.99,-180.5"/>
</g>
<!-- #136 -->
<g id="node34" class="node">
<title>#136</title>
<polygon fill="none" stroke="black" points="3027.5,-249 2935.5,-249 2935.5,-213 3027.5,-213 3027.5,-249"/>
<text text-anchor="middle" x="2981.5" y="-227.3" font-family="Times New Roman,serif" font-size="14.00">DIRECTION</text>
</g>
<!-- #129&#45;&gt;#136 -->
<g id="edge36" class="edge">
<title>#129&#45;&gt;#136</title>
<path fill="none" stroke="black" d="M2873.15,-231C2873.15,-231 2925.37,-231 2925.37,-231"/>
<polygon fill="black" stroke="black" points="2925.37,-234.5 2935.37,-231 2925.37,-227.5 2925.37,-234.5"/>
</g>
<!-- #137 -->
<g id="node35" class="node">
<title>#137</title>
<polygon fill="none" stroke="black" points="3027.5,-303 2935.5,-303 2935.5,-267 3027.5,-267 3027.5,-303"/>
<text text-anchor="middle" x="2981.5" y="-281.3" font-family="Times New Roman,serif" font-size="14.00">DIRECTION</text>
</g>
<!-- #129&#45;&gt;#137 -->
<g id="edge37" class="edge">
<title>#129&#45;&gt;#137</title>
<path fill="none" stroke="black" d="M2869,-249.35C2869,-260.07 2869,-271.5 2869,-271.5 2869,-271.5 2925.42,-271.5 2925.42,-271.5"/>
<polygon fill="black" stroke="black" points="2925.42,-275 2935.42,-271.5 2925.42,-268 2925.42,-275"/>
</g>
<!-- #127 -->
<g id="node37" class="node">
<title>#127</title>
<polygon fill="none" stroke="black" points="2179,-303 2009,-303 2009,-267 2179,-267 2179,-303"/>
<text text-anchor="middle" x="2094" y="-281.3" font-family="Times New Roman,serif" font-size="14.00">AXIS2_PLACEMENT_3D</text>
</g>
<!-- #147&#45;&gt;#127 -->
<g id="edge39" class="edge">
<title>#147&#45;&gt;#127</title>
<path fill="none" stroke="black" d="M1918.84,-298.5C1918.84,-298.5 1998.61,-298.5 1998.61,-298.5"/>
<polygon fill="black" stroke="black" points="1998.61,-302 2008.61,-298.5 1998.61,-295 1998.61,-302"/>
</g>
<!-- #140 -->
<g id="node38" class="node">
<title>#140</title>
<polygon fill="none" stroke="black" points="2366,-330 2221,-330 2221,-294 2366,-294 2366,-330"/>
<text text-anchor="middle" x="2293.5" y="-308.3" font-family="Times New Roman,serif" font-size="14.00">CARTESIAN_POINT</text>
</g>
<!-- #127&#45;&gt;#140 -->
<g id="edge40" class="edge">
<title>#127&#45;&gt;#140</title>
<path fill="none" stroke="black" d="M2179.18,-298.5C2179.18,-298.5 2210.85,-298.5 2210.85,-298.5"/>
<polygon fill="black" stroke="black" points="2210.85,-302 2220.85,-298.5 2210.85,-295 2210.85,-302"/>
</g>
<!-- #132 -->
<g id="node39" class="node">
<title>#132</title>
<polygon fill="none" stroke="black" points="2339.5,-222 2247.5,-222 2247.5,-186 2339.5,-186 2339.5,-222"/>
<text text-anchor="middle" x="2293.5" y="-200.3" font-family="Times New Roman,serif" font-size="14.00">DIRECTION</text>
</g>
<!-- #127&#45;&gt;#132 -->
<g id="edge41" class="edge">
<title>#127&#45;&gt;#132</title>
<path fill="none" stroke="black" d="M2094,-266.62C2094,-242.72 2094,-204 2094,-204 2094,-204 2237.23,-204 2237.23,-204"/>
<polygon fill="black" stroke="black" points="2237.23,-207.5 2247.23,-204 2237.23,-200.5 2237.23,-207.5"/>
</g>
<!-- #133 -->
<g id="node40" class="node">
<title>#133</title>
<polygon fill="none" stroke="black" points="2339.5,-276 2247.5,-276 2247.5,-240 2339.5,-240 2339.5,-276"/>
<text text-anchor="middle" x="2293.5" y="-254.3" font-family="Times New Roman,serif" font-size="14.00">DIRECTION</text>
</g>
<!-- #127&#45;&gt;#133 -->
<g id="edge42" class="edge">
<title>#127&#45;&gt;#133</title>
<path fill="none" stroke="black" d="M2179.18,-271.5C2179.18,-271.5 2237.38,-271.5 2237.38,-271.5"/>
<polygon fill="black" stroke="black" points="2237.38,-275 2247.38,-271.5 2237.38,-268 2237.38,-275"/>
</g>
<!-- #122 -->
<g id="node42" class="node">
<title>#122</title>
<polygon fill="none" stroke="black" points="1882,-566 1773,-566 1773,-530 1882,-530 1882,-566"/>
<text text-anchor="middle" x="1827.5" y="-544.3" font-family="Times New Roman,serif" font-size="14.00">FACE_BOUND</text>
</g>
<!-- #125&#45;&gt;#122 -->
<g id="edge44" class="edge">
<title>#125&#45;&gt;#122</title>
<path fill="none" stroke="black" d="M1646,-499.31C1646,-519.15 1646,-548 1646,-548 1646,-548 1762.55,-548 1762.55,-548"/>
<polygon fill="black" stroke="black" points="1762.55,-551.5 1772.55,-548 1762.55,-544.5 1762.55,-551.5"/>
</g>
<!-- #104 -->
<g id="node45" class="node">
<title>#104</title>
<polygon fill="none" stroke="black" points="1858,-499 1797,-499 1797,-463 1858,-463 1858,-499"/>
<text text-anchor="middle" x="1827.5" y="-477.3" font-family="Times New Roman,serif" font-size="14.00">PLANE</text>
</g>
<!-- #125&#45;&gt;#104 -->
<g id="edge48" class="edge">
<title>#125&#45;&gt;#104</title>
<path fill="none" stroke="black" d="M1652.12,-481C1652.12,-481 1786.69,-481 1786.69,-481"/>
<polygon fill="black" stroke="black" points="1786.69,-484.5 1796.69,-481 1786.69,-477.5 1786.69,-484.5"/>
</g>
<!-- #118 -->
<g id="node43" class="node">
<title>#118</title>
<polygon fill="none" stroke="black" points="2143,-593 2045,-593 2045,-557 2143,-557 2143,-593"/>
<text text-anchor="middle" x="2094" y="-571.3" font-family="Times New Roman,serif" font-size="14.00">EDGE_LOOP</text>
</g>
<!-- #122&#45;&gt;#118 -->
<g id="edge45" class="edge">
<title>#122&#45;&gt;#118</title>
<path fill="none" stroke="black" d="M1882.07,-561.5C1882.07,-561.5 2034.88,-561.5 2034.88,-561.5"/>
<polygon fill="black" stroke="black" points="2034.88,-565 2044.88,-561.5 2034.88,-558 2034.88,-565"/>
</g>
<!-- #114 -->
<g id="node44" class="node">
<title>#114</title>
<polygon fill="none" stroke="black" points="2359,-600 2228,-600 2228,-564 2359,-564 2359,-600"/>
<text text-anchor="middle" x="2293.5" y="-578.3" font-family="Times New Roman,serif" font-size="14.00">ORIENTED_EDGE</text>
</g>
<!-- #118&#45;&gt;#114 -->
<g id="edge46" class="edge">
<title>#118&#45;&gt;#114</title>
<path fill="none" stroke="black" d="M2143.06,-578.5C2143.06,-578.5 2217.66,-578.5 2217.66,-578.5"/>
<polygon fill="black" stroke="black" points="2217.66,-582 2227.66,-578.5 2217.66,-575 2217.66,-582"/>
</g>
<!-- #114&#45;&gt;#110 -->
<g id="edge47" class="edge">
<title>#114&#45;&gt;#110</title>
<path fill="none" stroke="black" d="M2359.41,-568.5C2397.52,-568.5 2438,-568.5 2438,-568.5 2438,-568.5 2438,-475.19 2438,-475.19"/>
<polygon fill="black" stroke="black" points="2441.5,-475.19 2438,-465.19 2434.5,-475.19 2441.5,-475.19"/>
</g>
<!-- #130 -->
<g id="node46" class="node">
<title>#130</title>
<polygon fill="none" stroke="black" points="2179,-499 2009,-499 2009,-463 2179,-463 2179,-499"/>
<text text-anchor="middle" x="2094" y="-477.3" font-family="Times New Roman,serif" font-size="14.00">AXIS2_PLACEMENT_3D</text>
</g>
<!-- #104&#45;&gt;#130 -->
<g id="edge49" class="edge">
<title>#104&#45;&gt;#130</title>
<path fill="none" stroke="black" d="M1858.07,-481C1858.07,-481 1999,-481 1999,-481"/>
<polygon fill="black" stroke="black" points="1999,-484.5 2009,-481 1999,-477.5 1999,-484.5"/>
</g>
<!-- #145 -->
<g id="node47" class="node">
<title>#145</title>
<polygon fill="none" stroke="black" points="2366,-492 2221,-492 2221,-456 2366,-456 2366,-492"/>
<text text-anchor="middle" x="2293.5" y="-470.3" font-family="Times New Roman,serif" font-size="14.00">CARTESIAN_POINT</text>
</g>
<!-- #130&#45;&gt;#145 -->
<g id="edge50" class="edge">
<title>#130&#45;&gt;#145</title>
<path fill="none" stroke="black" d="M2179.18,-477.5C2179.18,-477.5 2210.85,-477.5 2210.85,-477.5"/>
<polygon fill="black" stroke="black" points="2210.85,-481 2220.85,-477.5 2210.85,-474 2210.85,-481"/>
</g>
<!-- #138 -->
<g id="node48" class="node">
<title>#138</title>
<polygon fill="none" stroke="black" points="2339.5,-546 2247.5,-546 2247.5,-510 2339.5,-510 2339.5,-546"/>
<text text-anchor="middle" x="2293.5" y="-524.3" font-family="Times New Roman,serif" font-size="14.00">DIRECTION</text>
</g>
<!-- #130&#45;&gt;#138 -->
<g id="edge51" class="edge">
<title>#130&#45;&gt;#138</title>
<path fill="none" stroke="black" d="M2161,-499.35C2161,-509.26 2161,-519.5 2161,-519.5 2161,-519.5 2237.16,-519.5 2237.16,-519.5"/>
<polygon fill="black" stroke="black" points="2237.16,-523 2247.16,-519.5 2237.16,-516 2237.16,-523"/>
</g>
<!-- #123 -->
<g id="node50" class="node">
<title>#123</title>
<polygon fill="none" stroke="black" points="1882,-74 1773,-74 1773,-38 1882,-38 1882,-74"/>
<text text-anchor="middle" x="1827.5" y="-52.3" font-family="Times New Roman,serif" font-size="14.00">FACE_BOUND</text>
</g>
<!-- #126&#45;&gt;#123 -->
<g id="edge53" class="edge">
<title>#126&#45;&gt;#123</title>
<path fill="none" stroke="black" d="M1652.28,-131C1710.65,-131 1785,-131 1785,-131 1785,-131 1785,-84.16 1785,-84.16"/>
<polygon fill="black" stroke="black" points="1788.5,-84.16 1785,-74.16 1781.5,-84.16 1788.5,-84.16"/>
</g>
<!-- #105 -->
<g id="node53" class="node">
<title>#105</title>
<polygon fill="none" stroke="black" points="1858,-155 1797,-155 1797,-119 1858,-119 1858,-155"/>
<text text-anchor="middle" x="1827.5" y="-133.3" font-family="Times New Roman,serif" font-size="14.00">PLANE</text>
</g>
<!-- #126&#45;&gt;#105 -->
<g id="edge57" class="edge">
<title>#126&#45;&gt;#105</title>
<path fill="none" stroke="black" d="M1652.12,-143C1652.12,-143 1786.69,-143 1786.69,-143"/>
<polygon fill="black" stroke="black" points="1786.69,-146.5 1796.69,-143 1786.69,-139.5 1786.69,-146.5"/>
</g>
<!-- #119 -->
<g id="node51" class="node">
<title>#119</title>
<polygon fill="none" stroke="black" points="2143,-67 2045,-67 2045,-31 2143,-31 2143,-67"/>
<text text-anchor="middle" x="2094" y="-45.3" font-family="Times New Roman,serif" font-size="14.00">EDGE_LOOP</text>
</g>
<!-- #123&#45;&gt;#119 -->
<g id="edge54" class="edge">
<title>#123&#45;&gt;#119</title>
<path fill="none" stroke="black" d="M1882.07,-52.5C1882.07,-52.5 2034.88,-52.5 2034.88,-52.5"/>
<polygon fill="black" stroke="black" points="2034.88,-56 2044.88,-52.5 2034.88,-49 2034.88,-56"/>
</g>
<!-- #115 -->
<g id="node52" class="node">
<title>#115</title>
<polygon fill="none" stroke="black" points="2359,-60 2228,-60 2228,-24 2359,-24 2359,-60"/>
<text text-anchor="middle" x="2293.5" y="-38.3" font-family="Times New Roman,serif" font-size="14.00">ORIENTED_EDGE</text>
</g>
<!-- #119&#45;&gt;#115 -->
<g id="edge55" class="edge">
<title>#119&#45;&gt;#115</title>
<path fill="none" stroke="black" d="M2143.06,-45.5C2143.06,-45.5 2217.66,-45.5 2217.66,-45.5"/>
<polygon fill="black" stroke="black" points="2217.66,-49 2227.66,-45.5 2217.66,-42 2217.66,-49"/>
</g>
<!-- #115&#45;&gt;#111 -->
<g id="edge56" class="edge">
<title>#115&#45;&gt;#111</title>
<path fill="none" stroke="black" d="M2359.13,-42C2404.23,-42 2456,-42 2456,-42 2456,-42 2456,-148.79 2456,-148.79"/>
<polygon fill="black" stroke="black" points="2452.5,-148.79 2456,-158.79 2459.5,-148.79 2452.5,-148.79"/>
</g>
<!-- #131 -->
<g id="node54" class="node">
<title>#131</title>
<polygon fill="none" stroke="black" points="2179,-155 2009,-155 2009,-119 2179,-119 2179,-155"/>
<text text-anchor="middle" x="2094" y="-133.3" font-family="Times New Roman,serif" font-size="14.00">AXIS2_PLACEMENT_3D</text>
</g>
<!-- #105&#45;&gt;#131 -->
<g id="edge58" class="edge">
<title>#105&#45;&gt;#131</title>
<path fill="none" stroke="black" d="M1858.07,-137C1858.07,-137 1999,-137 1999,-137"/>
<polygon fill="black" stroke="black" points="1999,-140.5 2009,-137 1999,-133.5 1999,-140.5"/>
</g>
<!-- #146 -->
<g id="node55" class="node">
<title>#146</title>
<polygon fill="none" stroke="black" points="2366,-114 2221,-114 2221,-78 2366,-78 2366,-114"/>
<text text-anchor="middle" x="2293.5" y="-92.3" font-family="Times New Roman,serif" font-size="14.00">CARTESIAN_POINT</text>
</g>
<!-- #131&#45;&gt;#146 -->
<g id="edge59" class="edge">
<title>#131&#45;&gt;#146</title>
<path fill="none" stroke="black" d="M2179.27,-125.5C2208.97,-125.5 2235,-125.5 2235,-125.5 2235,-125.5 2235,-124.18 2235,-124.18"/>
<polygon fill="black" stroke="black" points="2238.5,-124.18 2235,-114.18 2231.5,-124.18 2238.5,-124.18"/>
</g>
<!-- #139 -->
<g id="node56" class="node">
<title>#139</title>
<polygon fill="none" stroke="black" points="2339.5,-168 2247.5,-168 2247.5,-132 2339.5,-132 2339.5,-168"/>
<text text-anchor="middle" x="2293.5" y="-146.3" font-family="Times New Roman,serif" font-size="14.00">DIRECTION</text>
</g>
<!-- #131&#45;&gt;#139 -->
<g id="edge60" class="edge">
<title>#131&#45;&gt;#139</title>
<path fill="none" stroke="black" d="M2179.18,-143.5C2179.18,-143.5 2237.38,-143.5 2237.38,-143.5"/>
<polygon fill="black" stroke="black" points="2237.38,-147 2247.38,-143.5 2237.38,-140 2237.38,-147"/>
</g>
<!-- #102 -->
<g id="node58" class="node">
<title>#102</title>
<polygon fill="none" stroke="black" points="1393,-652 1119,-652 1119,-616 1393,-616 1393,-652"/>
<text text-anchor="middle" x="1256" y="-630.3" font-family="Times New Roman,serif" font-size="14.00">UNCERTAINTY_MEASURE_WITH_UNIT</text>
</g>
<!-- #103&#45;&gt;#102 -->
<g id="edge62" class="edge">
<title>#103&#45;&gt;#102</title>
<path fill="none" stroke="black" d="M997.24,-667.83C1074.14,-667.83 1149,-667.83 1149,-667.83 1149,-667.83 1149,-662.11 1149,-662.11"/>
<polygon fill="black" stroke="black" points="1152.5,-662.11 1149,-652.11 1145.5,-662.11 1152.5,-662.11"/>
</g>
<!-- #99 -->
<g id="node59" class="node">
<title>#99</title>
<polygon fill="none" stroke="black" points="1640,-683.5 1527,-683.5 1527,-630.5 1640,-630.5 1640,-683.5"/>
<text text-anchor="middle" x="1583.5" y="-668.3" font-family="Times New Roman,serif" font-size="14.00">LENGTH_UNIT</text>
<text text-anchor="middle" x="1583.5" y="-653.3" font-family="Times New Roman,serif" font-size="14.00">NAMED_UNIT</text>
<text text-anchor="middle" x="1583.5" y="-638.3" font-family="Times New Roman,serif" font-size="14.00">SI_UNIT</text>
</g>
<!-- #103&#45;&gt;#99 -->
<g id="edge66" class="edge">
<title>#103&#45;&gt;#99</title>
<path fill="none" stroke="black" d="M997.31,-675.67C997.31,-675.67 1516.91,-675.67 1516.91,-675.67"/>
<polygon fill="black" stroke="black" points="1516.91,-679.17 1526.91,-675.67 1516.91,-672.17 1516.91,-679.17"/>
</g>
<!-- #101 -->
<g id="node60" class="node">
<title>#101</title>
<polygon fill="none" stroke="black" points="1332,-743.5 1180,-743.5 1180,-690.5 1332,-690.5 1332,-743.5"/>
<text text-anchor="middle" x="1256" y="-728.3" font-family="Times New Roman,serif" font-size="14.00">NAMED_UNIT</text>
<text text-anchor="middle" x="1256" y="-713.3" font-family="Times New Roman,serif" font-size="14.00">SI_UNIT</text>
<text text-anchor="middle" x="1256" y="-698.3" font-family="Times New Roman,serif" font-size="14.00">SOLID_ANGLE_UNIT</text>
</g>
<!-- #103&#45;&gt;#101 -->
<g id="edge64" class="edge">
<title>#103&#45;&gt;#101</title>
<path fill="none" stroke="black" d="M997.15,-709.25C997.15,-709.25 1169.79,-709.25 1169.79,-709.25"/>
<polygon fill="black" stroke="black" points="1169.79,-712.75 1179.79,-709.25 1169.79,-705.75 1169.79,-712.75"/>
</g>
<!-- #100 -->
<g id="node61" class="node">
<title>#100</title>
<polygon fill="none" stroke="black" points="1333.5,-814.5 1178.5,-814.5 1178.5,-761.5 1333.5,-761.5 1333.5,-814.5"/>
<text text-anchor="middle" x="1256" y="-799.3" font-family="Times New Roman,serif" font-size="14.00">NAMED_UNIT</text>
<text text-anchor="middle" x="1256" y="-784.3" font-family="Times New Roman,serif" font-size="14.00">PLANE_ANGLE_UNIT</text>
<text text-anchor="middle" x="1256" y="-769.3" font-family="Times New Roman,serif" font-size="14.00">SI_UNIT</text>
</g>
<!-- #103&#45;&gt;#100 -->
<g id="edge65" class="edge">
<title>#103&#45;&gt;#100</title>
<path fill="none" stroke="black" d="M958,-728.31C958,-749.53 958,-772.75 958,-772.75 958,-772.75 1168.48,-772.75 1168.48,-772.75"/>
<polygon fill="black" stroke="black" points="1168.48,-776.25 1178.48,-772.75 1168.48,-769.25 1168.48,-776.25"/>
</g>
<!-- #102&#45;&gt;#99 -->
<g id="edge63" class="edge">
<title>#102&#45;&gt;#99</title>
<path fill="none" stroke="black" d="M1393.47,-641.25C1393.47,-641.25 1516.71,-641.25 1516.71,-641.25"/>
<polygon fill="black" stroke="black" points="1516.71,-644.75 1526.71,-641.25 1516.71,-637.75 1516.71,-644.75"/>
</g>
<!-- #17 -->
<g id="node62" class="node">
<title>#17</title>
<polygon fill="none" stroke="black" points="1967,-867 1688,-867 1688,-831 1967,-831 1967,-867"/>
<text text-anchor="middle" x="1827.5" y="-845.3" font-family="Times New Roman,serif" font-size="14.00">APPLICATION_PROTOCOL_DEFINITION</text>
</g>
<!-- #17&#45;&gt;#18 -->
<g id="edge67" class="edge">
<title>#17&#45;&gt;#18</title>
<path fill="none" stroke="black" d="M1943,-867.23C1943,-876.71 1943,-886.33 1943,-886.33 1943,-886.33 1992.68,-886.33 1992.68,-886.33"/>
<polygon fill="black" stroke="black" points="1992.68,-889.83 2002.68,-886.33 1992.68,-882.83 1992.68,-889.83"/>
</g>
</g>
</svg>
